<?xml version="1.0" encoding="UTF-8"?>
<svg xmlns="http://www.w3.org/2000/svg" xmlns:xlink="http://www.w3.org/1999/xlink" viewBox="0 0 512 512" width="512px" height="512px">
<g id="surface253964076">
<path style=" stroke:none;fill-rule:nonzero;fill:rgb(90.588236%,29.803923%,23.529412%);fill-opacity:1;" d="M 354.46875 16 C 353.816406 16.023438 353.308594 16.207031 352.96875 16.53125 L 293.53125 87.125 L 281.40625 128.8125 C 273.167969 128.539062 264.65625 128.4375 255.9375 128.4375 C 194.160156 128.4375 144 134.980469 144 143.09375 C 144 162.453125 367.84375 162.453125 367.84375 143.09375 C 367.84375 137.09375 341.046875 132.023438 302.40625 129.625 L 312 95.3125 L 367.59375 28.4375 L 367.6875 28.34375 C 368.933594 27.046875 366.5 23.15625 362.53125 19.75 C 359.554688 17.183594 356.425781 15.925781 354.46875 16 Z M 276.84375 145.21875 L 276.625 145.875 C 276.527344 145.953125 276.53125 146.058594 276.53125 146.15625 C 276.53125 147.355469 281.378906 148.34375 287.28125 148.34375 C 293.183594 148.34375 298.0625 147.355469 298.0625 146.15625 L 298.25 145.40625 C 299.800781 145.964844 300.65625 146.609375 300.65625 147.34375 C 300.65625 149.28125 294.660156 150.859375 287.1875 150.78125 C 279.921875 150.78125 273.90625 149.3125 273.90625 147.375 C 273.90625 146.542969 275.101562 145.777344 276.84375 145.21875 Z M 366.59375 150.71875 C 336.976562 166.511719 175.195312 166.617188 145.46875 150.9375 L 158.625 266.65625 C 164.335938 248.207031 178.78125 223.300781 197.375 215.75 C 203.472656 213.253906 209.660156 213.265625 215.46875 216.59375 C 220.507812 219.363281 224.769531 225.164062 225.25 227.46875 C 226.417969 233.46875 223.324219 235.84375 220.90625 235.84375 C 217.996094 235.84375 215.769531 231.621094 214.3125 229.125 C 210.34375 222.390625 204.335938 222.097656 197.9375 226.53125 C 191.25 231.140625 185.4375 238.890625 181.375 245.625 C 176.429688 253.738281 172.261719 262.679688 169.75 271.625 C 168.292969 276.792969 166.964844 285.074219 169.1875 289.96875 C 170.164062 292 171.601562 293.28125 173.9375 293.28125 C 178.785156 293.28125 185.828125 287.199219 189.21875 283.96875 C 193.570312 279.824219 199.183594 273.363281 201.3125 269.21875 L 206.375 254.9375 C 208.886719 248.664062 215.9375 249.769531 215.9375 254.9375 C 215.9375 264.34375 212.378906 267.480469 206.28125 286.9375 C 200.664062 304.921875 198.90625 310.75 198.90625 310.75 C 198.234375 313.324219 195.613281 317.65625 192.8125 317.65625 C 191.644531 317.65625 190.792969 317.265625 190.3125 316.53125 C 189.335938 315.234375 189.433594 311.679688 189.53125 310.75 C 189.722656 307.804688 195.617188 290.269531 196.59375 287.5 C 194.65625 289.53125 192.628906 291.578125 190.40625 293.59375 C 185.175781 298.296875 176.761719 304.46875 169.59375 304.46875 C 166.296875 304.46875 164.1875 303.625 162.15625 302.25 L 169.5 375.65625 C 171.4375 380.265625 207.464844 391.4375 254.90625 391.4375 C 302.441406 391.4375 338.441406 380.183594 340.28125 375.65625 L 350.84375 288.4375 C 345.324219 293.238281 338.945312 299.148438 331.875 302.09375 C 326.644531 304.222656 315.03125 305.582031 315.03125 296.8125 C 315.03125 292.011719 323.847656 283.175781 328.96875 277 C 330.328125 275.433594 333.5 271.5625 333.5 269.53125 C 333.5 266.859375 327.707031 267.476562 322.1875 271.8125 C 319.082031 274.308594 316.167969 277.644531 313.75 280.78125 C 309.589844 286.316406 307.371094 291.09375 305.53125 295.0625 C 299.53125 308.152344 301.566406 302.992188 296.71875 315.34375 C 291.871094 327.617188 292.664062 326.21875 291.6875 328.25 C 290.824219 330.011719 289.554688 331.496094 287.8125 332.40625 C 285.972656 333.335938 283.457031 333.230469 281.90625 332.125 C 281.042969 331.566406 280.625 330.367188 280.625 328.71875 C 280.625 327.886719 280.746094 327.050781 280.9375 326.21875 C 282.394531 320.585938 288.492188 309.539062 295.46875 294.59375 C 297.019531 291.1875 296.425781 292.195312 296.21875 292.46875 C 290.21875 298.003906 285.65625 300.683594 282.28125 302.15625 C 276.664062 304.554688 269.691406 304.550781 268.25 298.375 C 268.152344 298.007812 268.160156 297.617188 268.0625 297.25 C 256.636719 305.730469 244.542969 308.039062 248.71875 289.78125 C 244.269531 297.347656 236.503906 303.53125 227 303.53125 C 223.03125 303.53125 220.128906 302.25 218.6875 298.84375 C 216.464844 293.773438 219.941406 285.082031 223.125 276.875 C 224.773438 272.730469 227.023438 267.746094 230.03125 261.9375 C 231.582031 258.800781 234.078125 256.949219 237.375 257.78125 C 237.949219 257.972656 238.457031 258.164062 238.9375 258.4375 C 241.449219 260.101562 240.484375 262.566406 239.21875 265.0625 C 235.539062 271.972656 232.347656 277.050781 230.21875 284.25 C 229.355469 287.289062 228.265625 292.5625 231.65625 292.5625 C 233.976562 292.5625 236.199219 291.816406 238.34375 290.34375 C 242.792969 287.207031 246.375 282.515625 249.09375 277.90625 C 251.03125 274.59375 253.363281 270.257812 254.53125 266.5625 C 255.011719 264.996094 255.609375 263.515625 256.28125 262.125 C 257.351562 259.820312 258.785156 257.4375 261.3125 257.4375 C 262.578125 257.4375 263.621094 257.902344 264.40625 258.8125 C 266.054688 260.84375 265.691406 262.933594 264.8125 265.15625 C 262.875 270.324219 260.269531 274.945312 258.125 280.5625 C 256.859375 283.792969 255.5 287.9375 255.5 291.34375 C 255.5 294.480469 259.085938 293.734375 262.09375 292.4375 C 264.414062 291.429688 266.734375 289.878906 268.6875 288.3125 C 269.855469 283.800781 269.546875 284.796875 294.25 225.40625 C 295.515625 222.367188 297.835938 221.0625 300.15625 221.0625 C 301.324219 221.0625 302.273438 221.453125 303.25 222.09375 C 304.898438 223.292969 304.921875 225.84375 304.25 227.78125 C 303.578125 229.542969 303.652344 228.988281 299.875 237.46875 C 294.835938 248.621094 291.558594 256.667969 287.09375 266.90625 C 285.253906 271.144531 279.648438 284.332031 278.6875 287.46875 C 278.113281 289.5 277.417969 292.8125 279.65625 292.8125 C 284.886719 292.8125 298.351562 280.726562 302.03125 277.125 C 302.222656 276.851562 302.523438 276.753906 302.90625 276.5625 C 303.480469 274.800781 304.050781 273.164062 304.53125 271.5 C 305.890625 267.996094 307.160156 263.910156 309.6875 261.0625 C 310.457031 260.132812 311.320312 259.59375 312.28125 259.59375 C 314.984375 259.59375 316.34375 260.6875 316.34375 263.28125 C 316.34375 264.289062 315.679688 267.992188 315.28125 269 C 316.640625 267.625 318.074219 266.25 319.625 264.875 C 334.152344 252.058594 344.5 258.597656 344.5 265.0625 C 344.5 271.878906 335.890625 281.359375 331.15625 286.625 C 329.605469 288.386719 326.410156 291.601562 326.3125 292.53125 C 326.3125 293.730469 327.171875 294.21875 328.4375 294.21875 C 330.375 294.21875 334.636719 290.980469 336.1875 289.875 C 341.035156 286.273438 347.59375 280.746094 352.25 276.875 Z M 174.875 384.5 L 189.3125 407.9375 L 194.9375 481.15625 C 194.9375 489.363281 222.335938 496 256.03125 496 C 289.726562 496 317.125 489.363281 317.125 481.15625 L 321.59375 407.1875 L 335.21875 384.5 C 296.867188 399.90625 214.777344 400.453125 174.875 384.5 Z M 174.875 384.5 "/>
</g>
</svg>
