<?xml version="1.0" encoding="UTF-8"?>
<svg xmlns="http://www.w3.org/2000/svg" xmlns:xlink="http://www.w3.org/1999/xlink" viewBox="0 0 480 480" width="480px" height="480px">
<g id="surface2051957">
<path style=" stroke:none;fill-rule:nonzero;fill:rgb(100%,100%,100%);fill-opacity:1;" d="M 240 40.5 C 129.820312 40.5 40.5 129.820312 40.5 240 C 40.5 350.179688 129.820312 439.5 240 439.5 C 350.179688 439.5 439.5 350.179688 439.5 240 C 439.5 129.820312 350.179688 40.5 240 40.5 Z M 240 40.5 "/>
<path style=" stroke:none;fill-rule:nonzero;fill:rgb(12.941177%,45.882353%,60.784316%);fill-opacity:1;" d="M 80.011719 240 C 80.011719 303.359375 116.808594 358.058594 170.191406 384 L 93.851562 174.878906 C 84.980469 194.789062 80.011719 216.761719 80.011719 240 Z M 348.039062 231.941406 C 348.039062 212.171875 337.410156 198.441406 331.339844 187.820312 C 323.210938 174.53125 315.578125 163.449219 315.578125 150.300781 C 315.578125 135.648438 330.289062 121.898438 345.988281 121.898438 C 346.699219 121.898438 347.339844 121.960938 348.050781 121.980469 C 319.609375 95.839844 281.679688 80 240.011719 80 C 186.121094 80 138.480469 106.660156 109.488281 147.488281 C 111.769531 148.230469 112.558594 147.878906 115.601562 147.878906 C 132.289062 147.878906 158.238281 145.878906 158.238281 145.878906 C 166.839844 145.308594 167.890625 158 159.230469 159.039062 C 159.230469 159.039062 150.589844 160.089844 140.949219 160.558594 L 200.261719 338.339844 L 235.261719 233.328125 L 209.230469 160.851562 C 200.621094 160.390625 192.441406 159.328125 192.441406 159.328125 C 183.820312 158.769531 184.820312 145.578125 193.421875 146.171875 C 193.421875 146.171875 219.898438 148.171875 235.589844 148.171875 C 252.339844 148.171875 278.230469 146.171875 278.230469 146.171875 C 286.839844 145.601562 287.878906 158.289062 279.269531 159.328125 C 279.269531 159.328125 270.570312 160.378906 260.949219 160.851562 L 319.859375 336.949219 L 335.851562 283.691406 C 343.988281 262.890625 348.039062 245.691406 348.039062 231.941406 Z M 242.808594 253.960938 L 194.808594 393.480469 C 209.171875 397.738281 224.308594 400 240.011719 400 C 258.621094 400 276.5 396.761719 293.171875 390.929688 C 292.769531 390.21875 292.320312 389.5 291.988281 388.730469 Z M 380.429688 163.179688 C 381.140625 168.28125 381.511719 173.769531 381.511719 179.628906 C 381.511719 195.910156 378.449219 214.140625 369.320312 237 L 320.46875 378.351562 C 368.050781 350.628906 400 299.019531 400 240 C 400 212.191406 392.890625 186.039062 380.429688 163.179688 Z M 380.429688 163.179688 "/>
<path style=" stroke:none;fill-rule:nonzero;fill:rgb(12.941177%,45.882353%,60.784316%);fill-opacity:1;" d="M 40 240 C 40 350.238281 129.699219 440 239.988281 440 C 350.300781 440 440 350.238281 440 240 C 440 129.761719 350.300781 40 240 40 C 129.699219 40 40 129.761719 40 240 Z M 59.949219 240 C 59.949219 140.761719 140.691406 60.011719 239.988281 60.011719 C 339.289062 60.011719 420.050781 140.761719 420.050781 240 C 420.050781 339.238281 339.289062 420.011719 240 420.011719 C 140.71875 420.011719 59.949219 339.238281 59.949219 240 Z M 59.949219 240 "/>
</g>
</svg>
