<?xml version="1.0" encoding="UTF-8"?>
<svg xmlns="http://www.w3.org/2000/svg" xmlns:xlink="http://www.w3.org/1999/xlink" viewBox="0 0 480 480" width="480px" height="480px">
<g id="surface271620855">
<path style=" stroke:none;fill-rule:nonzero;fill:rgb(87.450981%,94.117647%,99.607843%);fill-opacity:1;" d="M 360 456 L 120 456 C 66.984375 456 24 413.015625 24 360 L 24 120 C 24 66.984375 66.984375 24 120 24 L 360 24 C 413.015625 24 456 66.984375 456 120 L 456 360 C 456 413.015625 413.015625 456 360 456 Z M 360 456 "/>
<path style=" stroke:none;fill-rule:nonzero;fill:rgb(71.372551%,86.274511%,99.607843%);fill-opacity:1;" d="M 422.183594 420.574219 C 422.363281 417.671875 422.496094 414.792969 422.675781 412.128906 C 423.382812 401.328125 424.789062 362.171875 424.789062 340.570312 C 424.789062 318.972656 418.464844 254.171875 413.542969 246.070312 C 408.625 237.972656 406.511719 238.644531 400.1875 235.945312 C 393.863281 233.242188 360.816406 233.914062 360.816406 233.914062 L 358.765625 449.542969 C 383.605469 448.117188 405.910156 437.339844 422.183594 420.574219 Z M 422.183594 420.574219 "/>
<path style=" stroke:none;fill-rule:nonzero;fill:rgb(59.607846%,80.000001%,99.215686%);fill-opacity:1;" d="M 353.136719 449.832031 C 380.820312 449.832031 405.707031 438.085938 423.277344 419.363281 L 423.277344 304.894531 C 423.277344 286.199219 413.878906 276.804688 395.183594 276.804688 L 357.132812 276.804688 L 351.503906 449.820312 L 353.136719 449.820312 Z M 353.136719 449.832031 "/>
<path style=" stroke:none;fill-rule:nonzero;fill:rgb(27.843139%,53.333336%,78.039217%);fill-opacity:1;" d="M 346.679688 449.832031 L 353.136719 449.832031 C 355.007812 449.832031 356.832031 449.652344 358.679688 449.554688 L 357.910156 240 C 357.910156 240 373.511719 238.800781 385.691406 238.800781 C 391.789062 238.800781 397.007812 239.101562 399.011719 240 C 405 242.699219 407.003906 243.898438 411.660156 252 C 416.316406 260.101562 422.28125 303.445312 422.605469 340.570312 C 422.796875 362.171875 422.269531 400.308594 421.609375 411.109375 C 421.390625 414.707031 420.839844 418.703125 420.085938 422.652344 C 425.28125 417.625 429.886719 412.007812 433.847656 405.925781 C 434.386719 390.769531 434.773438 359.796875 434.605469 340.453125 C 434.292969 305.617188 428.855469 257.820312 422.0625 246 C 416.21875 235.847656 412.414062 232.859375 403.945312 229.042969 C 400.933594 227.6875 396.683594 226.789062 385.703125 226.789062 C 373.199219 226.789062 357.648438 227.976562 357 228.023438 L 345.875 228.875 L 345.910156 240.035156 Z M 346.679688 449.832031 "/>
<path style=" stroke:none;fill-rule:nonzero;fill:rgb(59.607846%,80.000001%,99.215686%);fill-opacity:1;" d="M 97.234375 449.832031 L 353.136719 449.832031 C 354.179688 449.832031 355.1875 449.710938 356.230469 449.675781 L 357.457031 410.101562 C 357.457031 410.101562 369.613281 248.101562 338.554688 156.300781 C 330.949219 133.8125 314.929688 116.472656 306.828125 109.042969 C 298.726562 101.617188 283.199219 97.570312 267.683594 95.542969 C 252.15625 93.515625 225.15625 92.84375 211.65625 94.871094 C 198.15625 96.898438 168.457031 111.070312 154.285156 118.5 C 140.113281 125.929688 123.910156 146.171875 112.441406 167.773438 C 100.96875 189.371094 98.269531 261.601562 95.566406 281.171875 C 92.867188 300.742188 92.867188 379.726562 94.210938 404.699219 C 95.21875 423.480469 96.613281 441.863281 97.234375 449.832031 Z M 97.234375 449.832031 "/>
<path style=" stroke:none;fill-rule:nonzero;fill:rgb(71.372551%,86.274511%,99.607843%);fill-opacity:1;" d="M 316.273438 119.855469 C 322.320312 137.519531 322.308594 145.90625 324 164.507812 C 325.34375 179.292969 326.125 250.246094 324.503906 265.007812 C 321.445312 292.847656 315.503906 344.507812 306 365.507812 C 299.519531 379.847656 285.167969 404.628906 271.726562 412.8125 C 258.335938 420.960938 226.175781 419.375 210.503906 419.507812 C 194.015625 419.652344 158.519531 421.597656 144.15625 413.484375 C 131.074219 406.105469 113.53125 379.777344 107.027344 366.226562 C 99.972656 351.539062 92.988281 319.042969 92.183594 302.785156 C 90.167969 262.488281 98.398438 183.203125 119.59375 150.984375 C 129.730469 135.5625 177.695312 105.445312 177.695312 105.445312 C 200.230469 94.222656 225.3125 90.707031 252.289062 92.878906 L 298.609375 102.300781 C 298.621094 102.3125 314.101562 113.496094 316.273438 119.855469 Z M 316.273438 119.855469 "/>
<path style=" stroke:none;fill-rule:nonzero;fill:rgb(27.843139%,53.333336%,78.039217%);fill-opacity:1;" d="M 94.128906 449.832031 L 106.8125 449.832031 C 103.933594 441.816406 97.992188 423.253906 96.972656 404.425781 C 96.433594 394.429688 95.964844 373.835938 96 353.832031 C 96.046875 323.878906 96.226562 290.867188 96.828125 279.167969 C 97.847656 259.429688 104.328125 191.398438 115.800781 169.800781 C 127.273438 148.199219 144.121094 131.398438 156.972656 121.871094 C 172.992188 109.992188 197.699219 99.214844 211.199219 97.199219 C 217.296875 96.289062 227.425781 95.914062 237.960938 95.914062 C 250.777344 95.914062 264.191406 96.457031 271.714844 97.199219 C 287.292969 98.734375 297.371094 105 305.472656 112.429688 C 313.570312 119.855469 325.726562 133.355469 331.800781 156.300781 C 337.871094 179.257812 348 198.828125 348 220.429688 C 348 242.027344 348 410.101562 348 410.101562 L 345.550781 449.832031 L 353.136719 449.832031 C 354.636719 449.832031 356.101562 449.675781 357.589844 449.605469 L 359.976562 410.832031 L 360 410.472656 L 360 220.429688 C 360 203.867188 354.851562 188.640625 349.871094 173.914062 C 347.605469 167.21875 345.265625 160.285156 343.390625 153.226562 C 338.21875 133.667969 328.1875 116.964844 313.570312 103.570312 C 306.058594 96.683594 293.664062 87.300781 272.890625 85.246094 C 264.769531 84.445312 250.738281 83.914062 237.960938 83.914062 C 229.222656 83.914062 217.1875 84.15625 209.410156 85.332031 C 193.308594 87.742188 166.585938 99.816406 149.820312 112.234375 C 141.371094 118.5 120.109375 136.09375 105.191406 164.171875 C 90.109375 192.5625 84.875 277.703125 84.828125 278.542969 C 84.347656 288.238281 84.070312 312.851562 84 353.808594 C 83.964844 374.796875 84.46875 395.484375 84.996094 405.070312 C 85.945312 422.808594 90.816406 439.921875 94.128906 449.832031 Z M 94.128906 449.832031 "/>
<path style=" stroke:none;fill-rule:nonzero;fill:rgb(27.843139%,53.333336%,78.039217%);fill-opacity:1;" d="M 360 36 C 406.320312 36 444 73.679688 444 120 L 444 360 C 444 406.320312 406.320312 444 360 444 L 120 444 C 73.679688 444 36 406.320312 36 360 L 36 120 C 36 73.679688 73.679688 36 120 36 L 360 36 M 360 24 L 120 24 C 66.984375 24 24 66.984375 24 120 L 24 360 C 24 413.015625 66.984375 456 120 456 L 360 456 C 413.015625 456 456 413.015625 456 360 L 456 120 C 456 66.984375 413.015625 24 360 24 Z M 360 24 "/>
<path style=" stroke:none;fill-rule:nonzero;fill:rgb(71.372551%,86.274511%,99.607843%);fill-opacity:1;" d="M 119.746094 284.257812 C 119.746094 284.257812 150.191406 295.691406 166.476562 296.410156 C 182.761719 297.132812 218.160156 292.835938 225.238281 290.6875 C 232.320312 288.539062 258.515625 265.667969 264.886719 254.21875 C 271.261719 242.785156 273.382812 210.601562 267.011719 198.445312 C 260.640625 186.289062 253.558594 181.285156 237.984375 178.429688 C 222.40625 175.570312 177.804688 175.570312 161.519531 176.28125 C 145.234375 177 128.953125 177 117.625 183.433594 C 106.296875 189.863281 88.597656 202.738281 83.640625 212.746094 C 78.683594 222.757812 78.550781 228.3125 77.976562 241.34375 C 77.28125 256.945312 108.421875 280.679688 119.746094 284.257812 Z M 119.746094 284.257812 "/>
<path style=" stroke:none;fill-rule:nonzero;fill:rgb(87.450981%,94.117647%,99.607843%);fill-opacity:1;" d="M 240.144531 180.730469 L 131.0625 177.238281 L 87.191406 204.683594 L 78.335938 222.539062 C 78.335938 234.625 87.394531 244.644531 99.070312 245.472656 L 192.550781 252.109375 C 218.292969 253.933594 240.144531 232.871094 240.144531 206.230469 Z M 240.144531 180.730469 "/>
<path style=" stroke:none;fill-rule:nonzero;fill:rgb(27.843139%,53.333336%,78.039217%);fill-opacity:1;" d="M 155.988281 179.988281 C 156.433594 179.988281 156.863281 179.988281 157.308594 180 C 172.105469 180.167969 222.085938 179.785156 234.792969 181.714844 C 246.109375 183.433594 254.113281 185.398438 260.28125 196.871094 C 266.449219 208.34375 264.394531 238.714844 258.226562 249.527344 C 252.058594 260.328125 235.355469 278.472656 219.839844 283.957031 C 213.085938 286.332031 178.199219 288 162.925781 288 C 146.339844 288 128.554688 281.832031 117.671875 277.871094 C 100.222656 271.523438 83.761719 250.957031 84 237.828125 C 84.382812 217.199219 87.804688 207.457031 110.820312 190.800781 C 120.695312 183.648438 139.261719 179.988281 155.988281 179.988281 M 155.988281 167.988281 C 139.488281 167.988281 117.109375 171.421875 103.777344 181.078125 C 77.125 200.363281 72.433594 214.105469 72 237.601562 C 71.652344 256.1875 91.859375 281.242188 113.554688 289.152344 C 128.292969 294.515625 145.679688 300 162.925781 300 C 172.980469 300 213.757812 298.8125 223.824219 295.261719 C 242.902344 288.527344 261.515625 267.9375 268.644531 255.46875 C 276.5625 241.597656 279.15625 206.628906 270.851562 191.183594 C 262.117188 174.949219 249.660156 171.816406 236.59375 169.835938 C 226.523438 168.3125 199.679688 168.121094 170.699219 168.046875 C 165.179688 168.035156 160.546875 168.023438 157.453125 167.988281 Z M 155.988281 167.988281 "/>
<path style=" stroke:none;fill-rule:nonzero;fill:rgb(100%,100%,100%);fill-opacity:1;" d="M 173.554688 192.214844 L 125.734375 198.121094 C 115.726562 199.355469 108.214844 207.757812 108.214844 217.714844 C 108.214844 223.679688 113.316406 228.40625 119.339844 228.035156 L 176.617188 224.496094 C 185.28125 223.957031 192.023438 216.875 192.023438 208.308594 C 192.023438 198.550781 183.359375 191.003906 173.554688 192.214844 Z M 173.554688 192.214844 "/>
</g>
</svg>
