<?xml version="1.0" encoding="UTF-8"?>
<svg xmlns="http://www.w3.org/2000/svg" xmlns:xlink="http://www.w3.org/1999/xlink" viewBox="0 0 1000 1000"
  width="1000px" height="1000px">
  <g id="surface271560311">
    <path style=" stroke:none;fill-rule:nonzero;fill:rgb(10.196079%,73.725492%,61.176473%);fill-opacity:1;"
      d="M 133.332031 100 C 114.925781 100 100 114.925781 100 133.332031 L 100 866.667969 C 100 885.074219 114.925781 900 133.332031 900 L 866.667969 900 C 885.074219 900 900 885.074219 900 866.667969 L 900 133.332031 C 900 114.925781 885.074219 100 866.667969 100 Z M 166.667969 166.667969 L 833.332031 166.667969 L 833.332031 833.332031 L 783.332031 833.332031 C 790.875 816.214844 796.90625 795.78125 799.804688 770.441406 C 804.773438 727.027344 802.539062 662.339844 797.136719 603.253906 C 794.433594 573.714844 790.925781 545.992188 786.589844 523.371094 C 784.421875 512.0625 782.050781 502.078125 779.167969 493.097656 C 776.28125 484.121094 775.203125 476.496094 763.996094 465.429688 C 745.949219 447.597656 728.289062 445.347656 710.285156 441.472656 C 702.714844 439.839844 695.339844 438.730469 688.214844 437.695312 C 686.460938 426.855469 684.730469 415.960938 682.550781 405.402344 C 670.574219 347.339844 657.902344 294.785156 616.667969 264.910156 C 592.574219 247.453125 562.550781 239.417969 530.273438 235.480469 C 497.996094 231.542969 463.695312 232.550781 432.355469 240.496094 L 432.355469 240.558594 C 356.058594 259.960938 324.628906 298.152344 295.898438 337.042969 C 284.25 352.839844 276.703125 371.851562 269.726562 392.1875 C 235.074219 412.820312 208.222656 453.851562 208.203125 508.074219 C 208.191406 535.441406 218.472656 559.582031 233.332031 577.019531 L 233.332031 749.285156 C 233.332031 782.527344 235.550781 809.542969 238.28125 833.332031 L 166.667969 833.332031 Z M 483.984375 300.324219 C 496.632812 299.746094 509.785156 300.179688 522.199219 301.691406 C 547.03125 304.722656 569.199219 312.835938 577.539062 318.878906 C 584.335938 323.804688 606.457031 366.535156 617.253906 418.878906 C 628.050781 471.222656 633.332031 532.59375 633.332031 577.734375 C 633.332031 639.894531 627.5 758.792969 623.566406 833.332031 L 305.46875 833.332031 C 302.546875 810.542969 300 783.753906 300 749.285156 L 300 618.164062 C 314.679688 622.910156 328.824219 626.21875 340.363281 628.125 C 354.683594 630.488281 368.761719 632.34375 365.820312 631.707031 C 373.25 633.3125 377.078125 633.230469 383.59375 633.332031 C 390.109375 633.433594 397.875 633.210938 406.640625 632.550781 C 424.171875 631.234375 445.664062 628.164062 467.773438 621.355469 C 489.882812 614.542969 512.933594 604.070312 532.160156 585.9375 C 551.386719 567.804688 565.660156 540.550781 566.472656 508.917969 C 567.269531 477.761719 563.242188 451.695312 552.605469 429.753906 C 541.96875 407.808594 523.925781 391.398438 504.230469 382.097656 C 464.847656 363.492188 422.023438 366.398438 377.667969 366.863281 C 370.730469 366.933594 363.386719 367.320312 355.988281 367.839844 C 379.621094 335.339844 390.792969 319.882812 448.761719 305.144531 C 459.191406 302.5 471.335938 300.90625 483.984375 300.324219 Z M 378.320312 433.527344 C 423 433.058594 459.148438 434.527344 475.78125 442.382812 C 484.097656 446.3125 488.371094 450.035156 492.644531 458.855469 C 496.917969 467.671875 500.425781 482.96875 499.804688 507.226562 C 499.433594 521.746094 495.007812 529.3125 486.394531 537.433594 C 477.78125 545.558594 463.828125 552.777344 448.113281 557.617188 C 432.394531 562.457031 415.238281 565.058594 401.628906 566.082031 C 394.824219 566.589844 388.890625 566.734375 384.636719 566.667969 C 380.378906 566.601562 376.34375 565.769531 379.882812 566.535156 L 379.816406 566.535156 C 368.996094 564.21875 362.972656 564.308594 351.238281 562.371094 C 339.503906 560.429688 325.636719 557.332031 313.347656 552.605469 C 301.058594 547.875 290.722656 541.539062 284.503906 534.699219 C 278.285156 527.863281 274.863281 521.3125 274.871094 508.074219 C 274.882812 472.277344 285.875 459.902344 304.101562 449.21875 C 322.328125 438.535156 351.257812 433.8125 378.320312 433.527344 Z M 696.679688 506.769531 C 705.113281 508.664062 712.3125 511.953125 715.691406 513.28125 C 715.722656 513.375 715.722656 513.378906 715.753906 513.476562 C 717.320312 518.347656 719.25 526.316406 721.09375 535.9375 C 724.785156 555.183594 728.238281 581.335938 730.792969 609.308594 C 735.910156 665.257812 737.292969 730.003906 733.527344 762.890625 C 728.5 806.871094 715.480469 822.148438 707.878906 828.386719 C 700.273438 834.621094 700 833.332031 700 833.332031 L 690.363281 833.332031 C 694.320312 758.453125 700 643.152344 700 577.734375 C 700 556.199219 698.777344 531.863281 696.679688 506.769531 Z M 696.679688 506.769531 " />
  </g>
</svg>
